# xmcd CD database file
#
# Track frame offsets:
#	150
#	11660
#	55986
#	70405
#	84239
#	102819
#	121572
#	133999
#	175439
#	188562
#
# Disc length: 3068 seconds
#
# Revision: 0
# Processed by: cddbd v1.5.2PL0 Copyright (c) Steve Scherf et al.
# Submitted via: CDex 1.50Beta3
#
DISCID=800bfa0a
DTITLE=Charles Mingus - Mysterious Blues [CD5]
DYEAR=1900
DGENRE=Jazz
TTITLE0=Lullaby of Birdland
TTITLE1=Me and you Blues
TTITLE2=Memories of you
TTITLE3=Bedspread
TTITLE4=Coffee Pot
TTITLE5=Godchild
TTITLE6=Precognition
TTITLE7=Reincarnation of a Love Bird
TTITLE8=Shuffle Bass Boogie
TTITLE9=Original Faubus Fables
EXTD=
EXTT0=
EXTT1=
EXTT2=
EXTT3=
EXTT4=
EXTT5=
EXTT6=
EXTT7=
EXTT8=
EXTT9=
PLAYORDER=
